<svg xmlns="http://www.w3.org/2000/svg" xmlns:xlink="http://www.w3.org/1999/xlink" width="660" height="500" viewBox="0 0 660 500"><g transform="translate(240,-8) scale(1.22)"><defs><linearGradient id="g3" x1="0.15" y1="0" x2="0.85" y2="1"><stop offset="0" stop-color="#0F6B50"/><stop offset="0.5" stop-color="#1FA38A"/><stop offset="1" stop-color="#1F5FAF"/></linearGradient></defs><g>
  <path d="M138 44 C64 44 58 112 108 126 C158 140 152 200 78 200" fill="none"
        stroke="url(#g3)" stroke-width="31" stroke-linecap="round"/>
  <g transform="translate(146,30) rotate(-26) scale(0.92)"><path d="M0 0 C16 -14 40 -10 50 6 C32 20 10 16 0 0 Z" fill="#0F6B50"/></g>
  <g stroke="#1F5FAF" stroke-width="5" fill="#1F5FAF" stroke-linecap="round">
    <line x1="34" y1="138" x2="64" y2="164"/><line x1="64" y1="164" x2="30" y2="192"/>
    <circle cx="34" cy="138" r="8"/><circle cx="64" cy="164" r="8"/><circle cx="30" cy="192" r="8"/>
  </g></g></g><text x="330" y="380" font-family="Montserrat" font-size="100" font-weight="600" fill="#2B2B2B" text-anchor="middle" letter-spacing="-1.2">Synetic</text><line x1="176.70" y1="412.40" x2="202.70" y2="412.40" stroke="#C9A24B" stroke-width="1.60"/><line x1="457.30" y1="412.40" x2="483.30" y2="412.40" stroke="#C9A24B" stroke-width="1.60"/><text x="330" y="418" font-family="Inter" font-size="17.5" font-weight="400" letter-spacing="1.8" fill="#C9A24B" text-anchor="middle">Kiến tạo giá trị vượt trội</text></svg>