<svg xmlns="http://www.w3.org/2000/svg" xmlns:xlink="http://www.w3.org/1999/xlink" width="800" height="1900" viewBox="0 0 800 1900"><rect width="800" height="1900" fill="#F7F5EF"/><g opacity="0.7"><g opacity="0.16" stroke="#1FA38A" fill="#1FA38A"><line x1="520.75" y1="137.63" x2="438.20" y2="119.30" stroke-width="2.470"/><line x1="428.71" y1="694.81" x2="461.68" y2="753.69" stroke-width="2.470"/><line x1="428.71" y1="694.81" x2="511.13" y2="707.56" stroke-width="2.470"/><line x1="55.88" y1="172.35" x2="115.40" y2="223.81" stroke-width="2.470"/><line x1="339.62" y1="1571.02" x2="246.79" y2="1550.64" stroke-width="2.470"/><line x1="339.62" y1="1571.02" x2="420.16" y2="1662.76" stroke-width="2.470"/><line x1="99.04" y1="424.15" x2="47.68" y2="391.32" stroke-width="2.470"/><line x1="461.68" y1="753.69" x2="511.13" y2="707.56" stroke-width="2.470"/><line x1="461.68" y1="753.69" x2="544.32" y2="812.43" stroke-width="2.470"/><line x1="781.00" y1="88.51" x2="784.14" y2="224.32" stroke-width="2.470"/><line x1="686.77" y1="550.26" x2="583.56" y2="547.08" stroke-width="2.470"/><line x1="144.58" y1="1105.04" x2="251.32" y2="1112.57" stroke-width="2.470"/><line x1="144.58" y1="1105.04" x2="195.28" y2="1091.41" stroke-width="2.470"/><line x1="511.13" y1="707.56" x2="544.32" y2="812.43" stroke-width="2.470"/><line x1="251.32" y1="1112.57" x2="195.28" y2="1091.41" stroke-width="2.470"/><circle cx="259.07" cy="286.61" r="7.980"/><circle cx="520.75" cy="137.63" r="7.980"/><circle cx="428.71" cy="694.81" r="7.980"/><circle cx="46.40" cy="964.13" r="7.980"/><circle cx="30.00" cy="823.93" r="7.980"/><circle cx="55.88" cy="172.35" r="7.980"/><circle cx="339.62" cy="1571.02" r="7.980"/><circle cx="99.04" cy="424.15" r="7.980"/><circle cx="501.95" cy="1800.65" r="7.980"/><circle cx="461.68" cy="753.69" r="7.980"/><circle cx="781.00" cy="88.51" r="7.980"/><circle cx="686.77" cy="550.26" r="7.980"/><circle cx="115.40" cy="223.81" r="7.980"/><circle cx="246.79" cy="1550.64" r="7.980"/><circle cx="144.58" cy="1105.04" r="7.980"/><circle cx="511.13" cy="707.56" r="7.980"/><circle cx="438.20" cy="119.30" r="7.980"/><circle cx="47.68" cy="391.32" r="7.980"/><circle cx="544.32" cy="812.43" r="7.980"/><circle cx="251.32" cy="1112.57" r="7.980"/><circle cx="362.55" cy="569.56" r="7.980"/><circle cx="635.50" cy="1328.09" r="7.980"/><circle cx="195.28" cy="1091.41" r="7.980"/><circle cx="420.16" cy="1662.76" r="7.980"/><circle cx="583.56" cy="547.08" r="7.980"/><circle cx="784.14" cy="224.32" r="7.980"/></g></g><g transform="translate(70,80) scale(0.95)"><defs><linearGradient id="g41" x1="0.15" y1="0" x2="0.85" y2="1"><stop offset="0" stop-color="#0F6B50"/><stop offset="0.5" stop-color="#1FA38A"/><stop offset="1" stop-color="#1F5FAF"/></linearGradient></defs><g>
  <path d="M138 44 C64 44 58 112 108 126 C158 140 152 200 78 200" fill="none"
        stroke="url(#g41)" stroke-width="31" stroke-linecap="round"/>
  <g transform="translate(146,30) rotate(-26) scale(0.92)"><path d="M0 0 C16 -14 40 -10 50 6 C32 20 10 16 0 0 Z" fill="#0F6B50"/></g>
  <g stroke="#1F5FAF" stroke-width="5" fill="#1F5FAF" stroke-linecap="round">
    <line x1="34" y1="138" x2="64" y2="164"/><line x1="64" y1="164" x2="30" y2="192"/>
    <circle cx="34" cy="138" r="8"/><circle cx="64" cy="164" r="8"/><circle cx="30" cy="192" r="8"/>
  </g></g></g><text x="268" y="232" font-family="Montserrat" font-size="118" font-weight="600" fill="#2B2B2B" text-anchor="start" letter-spacing="-1.4">Synetic</text><line x1="268" y1="270.23" x2="298.68" y2="270.23" stroke="#C9A24B" stroke-width="1.89"/><text x="309.3" y="277" font-family="Inter" font-size="20.6" font-weight="400" letter-spacing="2.1" fill="#C9A24B" text-anchor="start">Kiến tạo giá trị vượt trội</text><text x="70" y="470" font-family="Montserrat" font-size="74" font-weight="700" fill="#0F6B50" letter-spacing="1" text-anchor="start" opacity="1">KIẾN TẠO</text><text x="70" y="556" font-family="Montserrat" font-size="74" font-weight="700" fill="#0F6B50" letter-spacing="1" text-anchor="start" opacity="1">GIÁ TRỊ</text><text x="70" y="642" font-family="Montserrat" font-size="74" font-weight="700" fill="#1F5FAF" letter-spacing="1" text-anchor="start" opacity="1">VƯỢT TRỘI</text><line x1="70" y1="690" x2="240" y2="690" stroke="#C9A24B" stroke-width="5"/><circle cx="88" cy="772" r="13" fill="none" stroke="#1FA38A" stroke-width="3"/><circle cx="88" cy="772" r="5" fill="#C9A24B"/><text x="122" y="780" font-family="Inter" font-size="30" font-weight="500" fill="#2B2B2B" letter-spacing="0.4" text-anchor="start" opacity="1">Tiên phong</text><circle cx="88" cy="846" r="13" fill="none" stroke="#1FA38A" stroke-width="3"/><circle cx="88" cy="846" r="5" fill="#C9A24B"/><text x="122" y="854" font-family="Inter" font-size="30" font-weight="500" fill="#2B2B2B" letter-spacing="0.4" text-anchor="start" opacity="1">Tin cậy</text><circle cx="88" cy="920" r="13" fill="none" stroke="#1FA38A" stroke-width="3"/><circle cx="88" cy="920" r="5" fill="#C9A24B"/><text x="122" y="928" font-family="Inter" font-size="30" font-weight="500" fill="#2B2B2B" letter-spacing="0.4" text-anchor="start" opacity="1">Kết nối</text><circle cx="88" cy="994" r="13" fill="none" stroke="#1FA38A" stroke-width="3"/><circle cx="88" cy="994" r="5" fill="#C9A24B"/><text x="122" y="1002" font-family="Inter" font-size="30" font-weight="500" fill="#2B2B2B" letter-spacing="0.4" text-anchor="start" opacity="1">Tăng trưởng</text><circle cx="88" cy="1068" r="13" fill="none" stroke="#1FA38A" stroke-width="3"/><circle cx="88" cy="1068" r="5" fill="#C9A24B"/><text x="122" y="1076" font-family="Inter" font-size="30" font-weight="500" fill="#2B2B2B" letter-spacing="0.4" text-anchor="start" opacity="1">Bền vững</text><circle cx="88" cy="1142" r="13" fill="none" stroke="#1FA38A" stroke-width="3"/><circle cx="88" cy="1142" r="5" fill="#C9A24B"/><text x="122" y="1150" font-family="Inter" font-size="30" font-weight="500" fill="#2B2B2B" letter-spacing="0.4" text-anchor="start" opacity="1">Khát vọng</text><g transform="translate(360,1180) scale(1.9)" opacity="0.95"><defs><linearGradient id="g42" x1="0.15" y1="0" x2="0.85" y2="1"><stop offset="0" stop-color="#0F6B50"/><stop offset="0.5" stop-color="#1FA38A"/><stop offset="1" stop-color="#1F5FAF"/></linearGradient></defs><g>
  <path d="M138 44 C64 44 58 112 108 126 C158 140 152 200 78 200" fill="none"
        stroke="url(#g42)" stroke-width="31" stroke-linecap="round"/>
  <g transform="translate(146,30) rotate(-26) scale(0.92)"><path d="M0 0 C16 -14 40 -10 50 6 C32 20 10 16 0 0 Z" fill="#0F6B50"/></g>
  <g stroke="#1F5FAF" stroke-width="5" fill="#1F5FAF" stroke-linecap="round">
    <line x1="34" y1="138" x2="64" y2="164"/><line x1="64" y1="164" x2="30" y2="192"/>
    <circle cx="34" cy="138" r="8"/><circle cx="64" cy="164" r="8"/><circle cx="30" cy="192" r="8"/>
  </g></g></g><defs><linearGradient id="w43" x1="0" y1="0" x2="1" y2="0.4"><stop offset="0" stop-color="#0F6B50"/><stop offset="1" stop-color="#1F5FAF"/></linearGradient></defs><path d="M0 1720 C 240.0 1530.0 496.0 1948.0 800 1606.0 L 800 1900 L 0 1900 Z" fill="url(#w43)" opacity="1.0"/><text x="400" y="1830" font-family="Montserrat" font-size="34" font-weight="600" fill="#FFFFFF" letter-spacing="2" text-anchor="middle" opacity="1">www.synetic.vn</text></svg>