<svg xmlns="http://www.w3.org/2000/svg" width="210mm" height="297mm" viewBox="0 0 210 297"><rect width="210" height="297" fill="#FFFFFF"/><g transform="translate(16,12) scale(0.052)"><defs><linearGradient id="g19" x1="0.15" y1="0" x2="0.85" y2="1"><stop offset="0" stop-color="#0F6B50"/><stop offset="0.5" stop-color="#1FA38A"/><stop offset="1" stop-color="#1F5FAF"/></linearGradient></defs><g>
  <path d="M138 44 C64 44 58 112 108 126 C158 140 152 200 78 200" fill="none"
        stroke="url(#g19)" stroke-width="31" stroke-linecap="round"/>
  <g transform="translate(146,30) rotate(-26) scale(0.92)"><path d="M0 0 C16 -14 40 -10 50 6 C32 20 10 16 0 0 Z" fill="#0F6B50"/></g>
  <g stroke="#1F5FAF" stroke-width="5" fill="#1F5FAF" stroke-linecap="round">
    <line x1="34" y1="138" x2="64" y2="164"/><line x1="64" y1="164" x2="30" y2="192"/>
    <circle cx="34" cy="138" r="8"/><circle cx="64" cy="164" r="8"/><circle cx="30" cy="192" r="8"/>
  </g></g></g><text x="26.92" y="19.8" font-family="Montserrat" font-size="7.2" font-weight="600" fill="#2B2B2B" text-anchor="start" letter-spacing="-0.1">Synetic</text><line x1="26.92" y1="22.13" x2="28.79" y2="22.13" stroke="#C9A24B" stroke-width="0.22"/><text x="29.44" y="23" font-family="Inter" font-size="1.3" font-weight="400" letter-spacing="0.1" fill="#C9A24B" text-anchor="start">Kiến tạo giá trị vượt trội</text><text x="196" y="16" font-family="Montserrat" font-size="2.6" font-weight="700" fill="#2B2B2B" letter-spacing="0" text-anchor="end" opacity="1">CÔNG TY CỔ PHẦN TẬP ĐOÀN SYNETIC</text><text x="196" y="20.5" font-family="Inter" font-size="2.3" font-weight="400" fill="#2B2B2B" letter-spacing="0" text-anchor="end" opacity="0.75">Tầng 12, Toà nhà ……………, Quận ……, Hà Nội</text><text x="196" y="24.5" font-family="Inter" font-size="2.3" font-weight="400" fill="#2B2B2B" letter-spacing="0" text-anchor="end" opacity="0.75">T (024) 3xxx xxxx  ·  info@synetic.vn</text><text x="196" y="28.5" font-family="Inter" font-size="2.3" font-weight="400" fill="#2B2B2B" letter-spacing="0" text-anchor="end" opacity="0.75">www.synetic.vn  ·  MST: 01xxxxxxxx</text><line x1="14" y1="34" x2="196" y2="34" stroke="#C9A24B" stroke-width="0.7"/><line x1="18" y1="48" x2="192" y2="48" stroke="#2B2B2B" stroke-opacity="0.10" stroke-width="0.2"/><line x1="18" y1="56" x2="192" y2="56" stroke="#2B2B2B" stroke-opacity="0.10" stroke-width="0.2"/><line x1="18" y1="64" x2="192" y2="64" stroke="#2B2B2B" stroke-opacity="0.10" stroke-width="0.2"/><line x1="18" y1="72" x2="192" y2="72" stroke="#2B2B2B" stroke-opacity="0.10" stroke-width="0.2"/><line x1="18" y1="80" x2="192" y2="80" stroke="#2B2B2B" stroke-opacity="0.10" stroke-width="0.2"/><line x1="18" y1="88" x2="192" y2="88" stroke="#2B2B2B" stroke-opacity="0.10" stroke-width="0.2"/><line x1="18" y1="96" x2="192" y2="96" stroke="#2B2B2B" stroke-opacity="0.10" stroke-width="0.2"/><line x1="18" y1="104" x2="192" y2="104" stroke="#2B2B2B" stroke-opacity="0.10" stroke-width="0.2"/><line x1="18" y1="112" x2="192" y2="112" stroke="#2B2B2B" stroke-opacity="0.10" stroke-width="0.2"/><line x1="18" y1="120" x2="192" y2="120" stroke="#2B2B2B" stroke-opacity="0.10" stroke-width="0.2"/><line x1="18" y1="128" x2="192" y2="128" stroke="#2B2B2B" stroke-opacity="0.10" stroke-width="0.2"/><line x1="18" y1="136" x2="192" y2="136" stroke="#2B2B2B" stroke-opacity="0.10" stroke-width="0.2"/><line x1="18" y1="144" x2="192" y2="144" stroke="#2B2B2B" stroke-opacity="0.10" stroke-width="0.2"/><line x1="18" y1="152" x2="192" y2="152" stroke="#2B2B2B" stroke-opacity="0.10" stroke-width="0.2"/><line x1="18" y1="160" x2="192" y2="160" stroke="#2B2B2B" stroke-opacity="0.10" stroke-width="0.2"/><line x1="18" y1="168" x2="192" y2="168" stroke="#2B2B2B" stroke-opacity="0.10" stroke-width="0.2"/><line x1="18" y1="176" x2="192" y2="176" stroke="#2B2B2B" stroke-opacity="0.10" stroke-width="0.2"/><line x1="18" y1="184" x2="192" y2="184" stroke="#2B2B2B" stroke-opacity="0.10" stroke-width="0.2"/><line x1="18" y1="192" x2="192" y2="192" stroke="#2B2B2B" stroke-opacity="0.10" stroke-width="0.2"/><line x1="18" y1="200" x2="192" y2="200" stroke="#2B2B2B" stroke-opacity="0.10" stroke-width="0.2"/><line x1="18" y1="208" x2="192" y2="208" stroke="#2B2B2B" stroke-opacity="0.10" stroke-width="0.2"/><line x1="18" y1="216" x2="192" y2="216" stroke="#2B2B2B" stroke-opacity="0.10" stroke-width="0.2"/><line x1="18" y1="224" x2="192" y2="224" stroke="#2B2B2B" stroke-opacity="0.10" stroke-width="0.2"/><line x1="18" y1="232" x2="192" y2="232" stroke="#2B2B2B" stroke-opacity="0.10" stroke-width="0.2"/><line x1="18" y1="240" x2="192" y2="240" stroke="#2B2B2B" stroke-opacity="0.10" stroke-width="0.2"/><line x1="18" y1="248" x2="192" y2="248" stroke="#2B2B2B" stroke-opacity="0.10" stroke-width="0.2"/><g transform="translate(120,214) scale(0.42)" opacity="0.5"><g opacity="0.45" stroke="#1FA38A" fill="#1FA38A"><line x1="130.19" y1="12.31" x2="109.55" y2="10.67" stroke-width="0.260"/><line x1="107.18" y1="62.17" x2="115.42" y2="67.44" stroke-width="0.260"/><line x1="107.18" y1="62.17" x2="127.78" y2="63.31" stroke-width="0.260"/><line x1="107.18" y1="62.17" x2="136.08" y2="72.69" stroke-width="0.260"/><line x1="107.18" y1="62.17" x2="90.64" y2="50.96" stroke-width="0.260"/><line x1="11.60" y1="86.26" x2="7.50" y2="73.72" stroke-width="0.260"/><line x1="11.60" y1="86.26" x2="36.15" y2="98.87" stroke-width="0.260"/><line x1="13.97" y1="15.42" x2="24.76" y2="37.95" stroke-width="0.260"/><line x1="13.97" y1="15.42" x2="28.85" y2="20.02" stroke-width="0.260"/><line x1="13.97" y1="15.42" x2="11.92" y2="35.01" stroke-width="0.260"/><line x1="84.90" y1="140.56" x2="61.70" y2="138.74" stroke-width="0.260"/><line x1="84.90" y1="140.56" x2="105.04" y2="148.77" stroke-width="0.260"/><line x1="24.76" y1="37.95" x2="28.85" y2="20.02" stroke-width="0.260"/><line x1="24.76" y1="37.95" x2="11.92" y2="35.01" stroke-width="0.260"/><line x1="125.49" y1="161.11" x2="105.04" y2="148.77" stroke-width="0.260"/><line x1="115.42" y1="67.44" x2="127.78" y2="63.31" stroke-width="0.260"/><line x1="115.42" y1="67.44" x2="136.08" y2="72.69" stroke-width="0.260"/><line x1="115.42" y1="67.44" x2="90.64" y2="50.96" stroke-width="0.260"/><line x1="195.25" y1="7.92" x2="196.03" y2="20.07" stroke-width="0.260"/><line x1="171.69" y1="49.23" x2="145.89" y2="48.95" stroke-width="0.260"/><line x1="28.85" y1="20.02" x2="11.92" y2="35.01" stroke-width="0.260"/><line x1="36.15" y1="98.87" x2="62.83" y2="99.55" stroke-width="0.260"/><line x1="36.15" y1="98.87" x2="48.82" y2="97.65" stroke-width="0.260"/><line x1="127.78" y1="63.31" x2="136.08" y2="72.69" stroke-width="0.260"/><line x1="127.78" y1="63.31" x2="145.89" y2="48.95" stroke-width="0.260"/><line x1="136.08" y1="72.69" x2="145.89" y2="48.95" stroke-width="0.260"/><line x1="62.83" y1="99.55" x2="48.82" y2="97.65" stroke-width="0.260"/><circle cx="64.77" cy="25.64" r="0.840"/><circle cx="130.19" cy="12.31" r="0.840"/><circle cx="107.18" cy="62.17" r="0.840"/><circle cx="11.60" cy="86.26" r="0.840"/><circle cx="7.50" cy="73.72" r="0.840"/><circle cx="13.97" cy="15.42" r="0.840"/><circle cx="84.90" cy="140.56" r="0.840"/><circle cx="24.76" cy="37.95" r="0.840"/><circle cx="125.49" cy="161.11" r="0.840"/><circle cx="115.42" cy="67.44" r="0.840"/><circle cx="195.25" cy="7.92" r="0.840"/><circle cx="171.69" cy="49.23" r="0.840"/><circle cx="28.85" cy="20.02" r="0.840"/><circle cx="61.70" cy="138.74" r="0.840"/><circle cx="36.15" cy="98.87" r="0.840"/><circle cx="127.78" cy="63.31" r="0.840"/><circle cx="109.55" cy="10.67" r="0.840"/><circle cx="11.92" cy="35.01" r="0.840"/><circle cx="136.08" cy="72.69" r="0.840"/><circle cx="62.83" cy="99.55" r="0.840"/><circle cx="90.64" cy="50.96" r="0.840"/><circle cx="158.88" cy="118.83" r="0.840"/><circle cx="48.82" cy="97.65" r="0.840"/><circle cx="105.04" cy="148.77" r="0.840"/><circle cx="145.89" cy="48.95" r="0.840"/><circle cx="196.03" cy="20.07" r="0.840"/></g></g><defs><linearGradient id="w20" x1="0" y1="0" x2="1" y2="0.4"><stop offset="0" stop-color="#0F6B50"/><stop offset="1" stop-color="#1F5FAF"/></linearGradient></defs><path d="M0 288 C 63.0 258.3 130.2 323.64 210 270.18 L 210 297 L 0 297 Z" fill="url(#w20)" opacity="1.0"/><text x="14" y="293" font-family="Inter" font-size="2.3" font-weight="400" fill="#FFFFFF" letter-spacing="0" text-anchor="start" opacity="0.9">CÔNG TY CỔ PHẦN TẬP ĐOÀN SYNETIC  ·  www.synetic.vn</text></svg>