<svg xmlns="http://www.w3.org/2000/svg" width="230mm" height="310mm" viewBox="0 0 230 310"><rect width="230" height="310" fill="#F7F5EF"/><g opacity="0.6"><g opacity="0.35" stroke="#1FA38A" fill="#1FA38A"><line x1="149.71" y1="22.46" x2="125.98" y2="19.46" stroke-width="0.403"/><line x1="123.25" y1="113.36" x2="132.73" y2="122.97" stroke-width="0.403"/><line x1="123.25" y1="113.36" x2="146.95" y2="115.44" stroke-width="0.403"/><line x1="123.25" y1="113.36" x2="156.49" y2="132.55" stroke-width="0.403"/><line x1="123.25" y1="113.36" x2="104.23" y2="92.93" stroke-width="0.403"/><line x1="13.34" y1="157.31" x2="8.62" y2="134.43" stroke-width="0.403"/><line x1="13.34" y1="157.31" x2="41.57" y2="180.30" stroke-width="0.403"/><line x1="16.07" y1="28.12" x2="33.18" y2="36.52" stroke-width="0.403"/><line x1="16.07" y1="28.12" x2="13.71" y2="63.85" stroke-width="0.403"/><line x1="97.64" y1="256.32" x2="70.95" y2="253.00" stroke-width="0.403"/><line x1="97.64" y1="256.32" x2="120.80" y2="271.29" stroke-width="0.403"/><line x1="28.47" y1="69.20" x2="33.18" y2="36.52" stroke-width="0.403"/><line x1="28.47" y1="69.20" x2="13.71" y2="63.85" stroke-width="0.403"/><line x1="144.31" y1="293.79" x2="120.80" y2="271.29" stroke-width="0.403"/><line x1="132.73" y1="122.97" x2="146.95" y2="115.44" stroke-width="0.403"/><line x1="132.73" y1="122.97" x2="156.49" y2="132.55" stroke-width="0.403"/><line x1="224.54" y1="14.44" x2="225.44" y2="36.60" stroke-width="0.403"/><line x1="197.45" y1="89.78" x2="167.77" y2="89.26" stroke-width="0.403"/><line x1="33.18" y1="36.52" x2="13.71" y2="63.85" stroke-width="0.403"/><line x1="41.57" y1="180.30" x2="72.25" y2="181.52" stroke-width="0.403"/><line x1="41.57" y1="180.30" x2="56.14" y2="178.07" stroke-width="0.403"/><line x1="146.95" y1="115.44" x2="156.49" y2="132.55" stroke-width="0.403"/><line x1="146.95" y1="115.44" x2="167.77" y2="89.26" stroke-width="0.403"/><line x1="72.25" y1="181.52" x2="56.14" y2="178.07" stroke-width="0.403"/><circle cx="74.48" cy="46.76" r="1.302"/><circle cx="149.71" cy="22.46" r="1.302"/><circle cx="123.25" cy="113.36" r="1.302"/><circle cx="13.34" cy="157.31" r="1.302"/><circle cx="8.62" cy="134.43" r="1.302"/><circle cx="16.07" cy="28.12" r="1.302"/><circle cx="97.64" cy="256.32" r="1.302"/><circle cx="28.47" cy="69.20" r="1.302"/><circle cx="144.31" cy="293.79" r="1.302"/><circle cx="132.73" cy="122.97" r="1.302"/><circle cx="224.54" cy="14.44" r="1.302"/><circle cx="197.45" cy="89.78" r="1.302"/><circle cx="33.18" cy="36.52" r="1.302"/><circle cx="70.95" cy="253.00" r="1.302"/><circle cx="41.57" cy="180.30" r="1.302"/><circle cx="146.95" cy="115.44" r="1.302"/><circle cx="125.98" cy="19.46" r="1.302"/><circle cx="13.71" cy="63.85" r="1.302"/><circle cx="156.49" cy="132.55" r="1.302"/><circle cx="72.25" cy="181.52" r="1.302"/><circle cx="104.23" cy="92.93" r="1.302"/><circle cx="182.71" cy="216.69" r="1.302"/><circle cx="56.14" cy="178.07" r="1.302"/><circle cx="120.80" cy="271.29" r="1.302"/><circle cx="167.77" cy="89.26" r="1.302"/><circle cx="225.44" cy="36.60" r="1.302"/></g></g><g transform="translate(26,34) scale(0.075)"><defs><linearGradient id="g33" x1="0.15" y1="0" x2="0.85" y2="1"><stop offset="0" stop-color="#0F6B50"/><stop offset="0.5" stop-color="#1FA38A"/><stop offset="1" stop-color="#1F5FAF"/></linearGradient></defs><g>
  <path d="M138 44 C64 44 58 112 108 126 C158 140 152 200 78 200" fill="none"
        stroke="url(#g33)" stroke-width="31" stroke-linecap="round"/>
  <g transform="translate(146,30) rotate(-26) scale(0.92)"><path d="M0 0 C16 -14 40 -10 50 6 C32 20 10 16 0 0 Z" fill="#0F6B50"/></g>
  <g stroke="#1F5FAF" stroke-width="5" fill="#1F5FAF" stroke-linecap="round">
    <line x1="34" y1="138" x2="64" y2="164"/><line x1="64" y1="164" x2="30" y2="192"/>
    <circle cx="34" cy="138" r="8"/><circle cx="64" cy="164" r="8"/><circle cx="30" cy="192" r="8"/>
  </g></g></g><text x="41.75" y="45.25" font-family="Montserrat" font-size="10.5" font-weight="600" fill="#2B2B2B" text-anchor="start" letter-spacing="-0.1">Synetic</text><line x1="41.75" y1="48.65" x2="44.48" y2="48.65" stroke="#C9A24B" stroke-width="0.22"/><text x="45.425" y="49" font-family="Inter" font-size="1.8" font-weight="400" letter-spacing="0.2" fill="#C9A24B" text-anchor="start">Kiến tạo giá trị vượt trội</text><g transform="translate(112,120) scale(0.62)" opacity="0.9"><defs><linearGradient id="g34" x1="0.15" y1="0" x2="0.85" y2="1"><stop offset="0" stop-color="#0F6B50"/><stop offset="0.5" stop-color="#1FA38A"/><stop offset="1" stop-color="#1F5FAF"/></linearGradient></defs><g>
  <path d="M138 44 C64 44 58 112 108 126 C158 140 152 200 78 200" fill="none"
        stroke="url(#g34)" stroke-width="31" stroke-linecap="round"/>
  <g transform="translate(146,30) rotate(-26) scale(0.92)"><path d="M0 0 C16 -14 40 -10 50 6 C32 20 10 16 0 0 Z" fill="#0F6B50"/></g>
  <g stroke="#1F5FAF" stroke-width="5" fill="#1F5FAF" stroke-linecap="round">
    <line x1="34" y1="138" x2="64" y2="164"/><line x1="64" y1="164" x2="30" y2="192"/>
    <circle cx="34" cy="138" r="8"/><circle cx="64" cy="164" r="8"/><circle cx="30" cy="192" r="8"/>
  </g></g></g><defs><linearGradient id="w35" x1="0" y1="0" x2="1" y2="0.4"><stop offset="0" stop-color="#0F6B50"/><stop offset="1" stop-color="#1F5FAF"/></linearGradient></defs><path d="M0 232 C 69.0 201.0 142.6 269.2 230 213.4 L 230 310 L 0 310 Z" fill="url(#w35)" opacity="1.0"/><text x="26" y="276" font-family="Montserrat" font-size="3.6" font-weight="700" fill="#FFFFFF" letter-spacing="0" text-anchor="start" opacity="0.95">CÔNG TY CỔ PHẦN TẬP ĐOÀN SYNETIC</text><text x="26" y="284" font-family="Inter" font-size="2.9" font-weight="400" fill="#FFFFFF" letter-spacing="0" text-anchor="start" opacity="0.85">Tầng 12, Toà nhà ……………, Quận ……, Hà Nội  ·  (024) 3xxx xxxx  ·  www.synetic.vn</text></svg>