<svg xmlns="http://www.w3.org/2000/svg" xmlns:xlink="http://www.w3.org/1999/xlink" width="760" height="1040" viewBox="0 0 760 1040"><rect width="760" height="1040" fill="#FFFFFF"/><g opacity="0.55"><g opacity="0.22" stroke="#1FA38A" fill="#1FA38A"><line x1="494.71" y1="75.33" x2="416.29" y2="65.30" stroke-width="1.352"/><line x1="407.27" y1="380.32" x2="438.60" y2="412.55" stroke-width="1.352"/><line x1="407.27" y1="380.32" x2="485.57" y2="387.29" stroke-width="1.352"/><line x1="407.27" y1="380.32" x2="517.10" y2="444.70" stroke-width="1.352"/><line x1="407.27" y1="380.32" x2="344.42" y2="311.76" stroke-width="1.352"/><line x1="44.08" y1="527.73" x2="28.50" y2="450.99" stroke-width="1.352"/><line x1="44.08" y1="527.73" x2="137.35" y2="604.86" stroke-width="1.352"/><line x1="53.09" y1="94.34" x2="109.63" y2="122.50" stroke-width="1.352"/><line x1="53.09" y1="94.34" x2="45.30" y2="214.20" stroke-width="1.352"/><line x1="322.63" y1="859.93" x2="234.45" y2="848.77" stroke-width="1.352"/><line x1="322.63" y1="859.93" x2="399.15" y2="910.14" stroke-width="1.352"/><line x1="94.09" y1="232.17" x2="109.63" y2="122.50" stroke-width="1.352"/><line x1="94.09" y1="232.17" x2="45.30" y2="214.20" stroke-width="1.352"/><line x1="476.85" y1="985.62" x2="399.15" y2="910.14" stroke-width="1.352"/><line x1="438.60" y1="412.55" x2="485.57" y2="387.29" stroke-width="1.352"/><line x1="438.60" y1="412.55" x2="517.10" y2="444.70" stroke-width="1.352"/><line x1="741.95" y1="48.45" x2="744.93" y2="122.79" stroke-width="1.352"/><line x1="652.44" y1="301.19" x2="554.38" y2="299.46" stroke-width="1.352"/><line x1="109.63" y1="122.50" x2="45.30" y2="214.20" stroke-width="1.352"/><line x1="137.35" y1="604.86" x2="238.75" y2="608.98" stroke-width="1.352"/><line x1="137.35" y1="604.86" x2="185.51" y2="597.40" stroke-width="1.352"/><line x1="485.57" y1="387.29" x2="517.10" y2="444.70" stroke-width="1.352"/><line x1="485.57" y1="387.29" x2="554.38" y2="299.46" stroke-width="1.352"/><line x1="238.75" y1="608.98" x2="185.51" y2="597.40" stroke-width="1.352"/><circle cx="246.11" cy="156.88" r="4.368"/><circle cx="494.71" cy="75.33" r="4.368"/><circle cx="407.27" cy="380.32" r="4.368"/><circle cx="44.08" cy="527.73" r="4.368"/><circle cx="28.50" cy="450.99" r="4.368"/><circle cx="53.09" cy="94.34" r="4.368"/><circle cx="322.63" cy="859.93" r="4.368"/><circle cx="94.09" cy="232.17" r="4.368"/><circle cx="476.85" cy="985.62" r="4.368"/><circle cx="438.60" cy="412.55" r="4.368"/><circle cx="741.95" cy="48.45" r="4.368"/><circle cx="652.44" cy="301.19" r="4.368"/><circle cx="109.63" cy="122.50" r="4.368"/><circle cx="234.45" cy="848.77" r="4.368"/><circle cx="137.35" cy="604.86" r="4.368"/><circle cx="485.57" cy="387.29" r="4.368"/><circle cx="416.29" cy="65.30" r="4.368"/><circle cx="45.30" cy="214.20" r="4.368"/><circle cx="517.10" cy="444.70" r="4.368"/><circle cx="238.75" cy="608.98" r="4.368"/><circle cx="344.42" cy="311.76" r="4.368"/><circle cx="603.73" cy="726.95" r="4.368"/><circle cx="185.51" cy="597.40" r="4.368"/><circle cx="399.15" cy="910.14" r="4.368"/><circle cx="554.38" cy="299.46" r="4.368"/><circle cx="744.93" cy="122.79" r="4.368"/></g></g><g transform="translate(268,44) scale(0.66)"><g>
  <path d="M138 44 C64 44 58 112 108 126 C158 140 152 200 78 200" fill="none"
        stroke="#0F6B50" stroke-width="31" stroke-linecap="round"/>
  <g transform="translate(146,30) rotate(-26) scale(0.92)"><path d="M0 0 C16 -14 40 -10 50 6 C32 20 10 16 0 0 Z" fill="#0F6B50"/></g>
  <g stroke="#0F6B50" stroke-width="5" fill="#0F6B50" stroke-linecap="round">
    <line x1="34" y1="138" x2="64" y2="164"/><line x1="64" y1="164" x2="30" y2="192"/>
    <circle cx="34" cy="138" r="8"/><circle cx="64" cy="164" r="8"/><circle cx="30" cy="192" r="8"/>
  </g></g></g><text x="380" y="232" font-family="Montserrat" font-size="76" font-weight="600" fill="#2B2B2B" text-anchor="middle" letter-spacing="-0.9">Synetic</text><text x="380" y="258" font-family="Montserrat" font-size="15.2" font-weight="500" letter-spacing="8.7" fill="#0F6B50" text-anchor="middle">NUTRITION</text><line x1="239.29" y1="276.38" x2="259.05" y2="276.38" stroke="#0F6B50" stroke-width="1.22"/><line x1="500.95" y1="276.38" x2="520.71" y2="276.38" stroke="#0F6B50" stroke-width="1.22"/><text x="380" y="281" font-family="Inter" font-size="13.3" font-weight="400" letter-spacing="1.3" fill="#0F6B50" text-anchor="middle">Chuẩn dinh dưỡng, bền tăng trưởng</text><line x1="150" y1="320" x2="610" y2="320" stroke="#C9A24B" stroke-width="2"/><text x="380" y="392" font-family="Montserrat" font-size="44" font-weight="700" fill="#2B2B2B" letter-spacing="1" text-anchor="middle" opacity="1">PREMIX</text><text x="380" y="452" font-family="Montserrat" font-size="52" font-weight="700" fill="#0F6B50" letter-spacing="1.4" text-anchor="middle" opacity="1">CHO GIA CẦM</text><rect x="236" y="486" width="288" height="52" rx="26" fill="#C9A24B"/><text x="380" y="521" font-family="Montserrat" font-size="24" font-weight="700" fill="#FFFFFF" letter-spacing="3" text-anchor="middle" opacity="1">MÃ SỐ  SN-PMX</text><circle cx="122" cy="600" r="26" fill="none" stroke="#0F6B50" stroke-width="3"/><circle cx="122" cy="600" r="10" fill="#0F6B50"/><text x="122" y="646" font-family="Inter" font-size="15" font-weight="500" fill="#2B2B2B" letter-spacing="0" text-anchor="middle" opacity="0.85">Dinh dưỡng</text><circle cx="242" cy="600" r="26" fill="none" stroke="#1FA38A" stroke-width="3"/><circle cx="242" cy="600" r="10" fill="#1FA38A"/><text x="242" y="646" font-family="Inter" font-size="15" font-weight="500" fill="#2B2B2B" letter-spacing="0" text-anchor="middle" opacity="0.85">Tăng trưởng</text><circle cx="362" cy="600" r="26" fill="none" stroke="#1F5FAF" stroke-width="3"/><circle cx="362" cy="600" r="10" fill="#1F5FAF"/><text x="362" y="646" font-family="Inter" font-size="15" font-weight="500" fill="#2B2B2B" letter-spacing="0" text-anchor="middle" opacity="0.85">Tiêu hoá</text><circle cx="482" cy="600" r="26" fill="none" stroke="#0F6B50" stroke-width="3"/><circle cx="482" cy="600" r="10" fill="#0F6B50"/><text x="482" y="646" font-family="Inter" font-size="15" font-weight="500" fill="#2B2B2B" letter-spacing="0" text-anchor="middle" opacity="0.85">Miễn dịch</text><circle cx="602" cy="600" r="26" fill="none" stroke="#1FA38A" stroke-width="3"/><circle cx="602" cy="600" r="10" fill="#1FA38A"/><text x="602" y="646" font-family="Inter" font-size="15" font-weight="500" fill="#2B2B2B" letter-spacing="0" text-anchor="middle" opacity="0.85">Bền vững</text><defs><linearGradient id="w47" x1="0" y1="0" x2="1" y2="0.4"><stop offset="0" stop-color="#0F6B50"/><stop offset="1" stop-color="#1FA38A"/></linearGradient></defs><path d="M0 700 C 228.0 596.0 471.2 824.8 760 637.6 L 760 1040 L 0 1040 Z" fill="url(#w47)" opacity="1.0"/><text x="380" y="790" font-family="Inter" font-size="26" font-weight="500" fill="#FFFFFF" letter-spacing="1" text-anchor="middle" opacity="0.9">PREMIX</text><text x="110" y="840" font-family="Inter" font-size="19" font-weight="400" fill="#FFFFFF" letter-spacing="0" text-anchor="start" opacity="0.9">Protein thô (min)</text><text x="650" y="840" font-family="Inter" font-size="19" font-weight="700" fill="#FFFFFF" letter-spacing="0" text-anchor="end" opacity="1">16,0 %</text><text x="110" y="870" font-family="Inter" font-size="19" font-weight="400" fill="#FFFFFF" letter-spacing="0" text-anchor="start" opacity="0.9">Năng lượng TĐ (min)</text><text x="650" y="870" font-family="Inter" font-size="19" font-weight="700" fill="#FFFFFF" letter-spacing="0" text-anchor="end" opacity="1">3.200 Kcal/kg</text><text x="110" y="900" font-family="Inter" font-size="19" font-weight="400" fill="#FFFFFF" letter-spacing="0" text-anchor="start" opacity="0.9">Xơ thô (max)</text><text x="650" y="900" font-family="Inter" font-size="19" font-weight="700" fill="#FFFFFF" letter-spacing="0" text-anchor="end" opacity="1">5,0 %</text><text x="110" y="930" font-family="Inter" font-size="19" font-weight="400" fill="#FFFFFF" letter-spacing="0" text-anchor="start" opacity="0.9">Canxi (min–max)</text><text x="650" y="930" font-family="Inter" font-size="19" font-weight="700" fill="#FFFFFF" letter-spacing="0" text-anchor="end" opacity="1">0,6 – 1,2 %</text><text x="110" y="960" font-family="Inter" font-size="19" font-weight="400" fill="#FFFFFF" letter-spacing="0" text-anchor="start" opacity="0.9">Độ ẩm (max)</text><text x="650" y="960" font-family="Inter" font-size="19" font-weight="700" fill="#FFFFFF" letter-spacing="0" text-anchor="end" opacity="1">13,0 %</text><rect x="92" y="962" width="132" height="52" rx="8" fill="#FFFFFF"/><text x="158" y="998" font-family="Montserrat" font-size="30" font-weight="700" fill="#0F6B50" letter-spacing="0" text-anchor="middle" opacity="1">1kg</text><text x="250" y="986" font-family="Inter" font-size="16" font-weight="400" fill="#FFFFFF" letter-spacing="0" text-anchor="start" opacity="0.9">Số TCCS: 02:2026/SNT-NUTRITION</text><text x="250" y="1008" font-family="Inter" font-size="16" font-weight="400" fill="#FFFFFF" letter-spacing="0" text-anchor="start" opacity="0.8">www.synetic.vn  ·  Thành viên của Synetic Group</text></svg>