<svg xmlns="http://www.w3.org/2000/svg" xmlns:xlink="http://www.w3.org/1999/xlink" width="620" height="820" viewBox="0 0 620 820"><rect width="620" height="820" fill="#FFFFFF"/><g opacity="0.5"><g opacity="0.22" stroke="#1FA38A" fill="#1FA38A"><line x1="403.58" y1="59.40" x2="339.60" y2="51.49" stroke-width="1.066"/><line x1="332.25" y1="299.86" x2="357.80" y2="325.28" stroke-width="1.066"/><line x1="332.25" y1="299.86" x2="396.13" y2="305.37" stroke-width="1.066"/><line x1="332.25" y1="299.86" x2="421.85" y2="350.63" stroke-width="1.066"/><line x1="332.25" y1="299.86" x2="280.97" y2="245.81" stroke-width="1.066"/><line x1="35.96" y1="416.10" x2="23.25" y2="355.59" stroke-width="1.066"/><line x1="35.96" y1="416.10" x2="112.05" y2="476.91" stroke-width="1.066"/><line x1="43.31" y1="74.38" x2="89.44" y2="96.59" stroke-width="1.066"/><line x1="43.31" y1="74.38" x2="36.95" y2="168.89" stroke-width="1.066"/><line x1="263.20" y1="678.02" x2="191.26" y2="669.22" stroke-width="1.066"/><line x1="263.20" y1="678.02" x2="325.62" y2="717.61" stroke-width="1.066"/><line x1="76.76" y1="183.06" x2="89.44" y2="96.59" stroke-width="1.066"/><line x1="76.76" y1="183.06" x2="36.95" y2="168.89" stroke-width="1.066"/><line x1="389.01" y1="777.12" x2="325.62" y2="717.61" stroke-width="1.066"/><line x1="357.80" y1="325.28" x2="396.13" y2="305.37" stroke-width="1.066"/><line x1="357.80" y1="325.28" x2="421.85" y2="350.63" stroke-width="1.066"/><line x1="605.28" y1="38.20" x2="607.71" y2="96.81" stroke-width="1.066"/><line x1="532.25" y1="237.48" x2="452.26" y2="236.11" stroke-width="1.066"/><line x1="89.44" y1="96.59" x2="36.95" y2="168.89" stroke-width="1.066"/><line x1="112.05" y1="476.91" x2="194.77" y2="480.16" stroke-width="1.066"/><line x1="112.05" y1="476.91" x2="151.34" y2="471.03" stroke-width="1.066"/><line x1="396.13" y1="305.37" x2="421.85" y2="350.63" stroke-width="1.066"/><line x1="396.13" y1="305.37" x2="452.26" y2="236.11" stroke-width="1.066"/><line x1="194.77" y1="480.16" x2="151.34" y2="471.03" stroke-width="1.066"/><circle cx="200.78" cy="123.70" r="3.444"/><circle cx="403.58" cy="59.40" r="3.444"/><circle cx="332.25" cy="299.86" r="3.444"/><circle cx="35.96" cy="416.10" r="3.444"/><circle cx="23.25" cy="355.59" r="3.444"/><circle cx="43.31" cy="74.38" r="3.444"/><circle cx="263.20" cy="678.02" r="3.444"/><circle cx="76.76" cy="183.06" r="3.444"/><circle cx="389.01" cy="777.12" r="3.444"/><circle cx="357.80" cy="325.28" r="3.444"/><circle cx="605.28" cy="38.20" r="3.444"/><circle cx="532.25" cy="237.48" r="3.444"/><circle cx="89.44" cy="96.59" r="3.444"/><circle cx="191.26" cy="669.22" r="3.444"/><circle cx="112.05" cy="476.91" r="3.444"/><circle cx="396.13" cy="305.37" r="3.444"/><circle cx="339.60" cy="51.49" r="3.444"/><circle cx="36.95" cy="168.89" r="3.444"/><circle cx="421.85" cy="350.63" r="3.444"/><circle cx="194.77" cy="480.16" r="3.444"/><circle cx="280.97" cy="245.81" r="3.444"/><circle cx="492.52" cy="573.18" r="3.444"/><circle cx="151.34" cy="471.03" r="3.444"/><circle cx="325.62" cy="717.61" r="3.444"/><circle cx="452.26" cy="236.11" r="3.444"/><circle cx="607.71" cy="96.81" r="3.444"/></g></g><path d="M0 0 H620 V250 C400 320 220 320 0 250 Z" fill="#1FA38A"/><g transform="translate(232,30) scale(0.6)"><g>
  <path d="M138 44 C64 44 58 112 108 126 C158 140 152 200 78 200" fill="none"
        stroke="#FFFFFF" stroke-width="31" stroke-linecap="round"/>
  <g transform="translate(146,30) rotate(-26) scale(0.92)"><path d="M0 0 C16 -14 40 -10 50 6 C32 20 10 16 0 0 Z" fill="#FFFFFF"/></g>
  <g stroke="#FFFFFF" stroke-width="5" fill="#FFFFFF" stroke-linecap="round">
    <line x1="34" y1="138" x2="64" y2="164"/><line x1="64" y1="164" x2="30" y2="192"/>
    <circle cx="34" cy="138" r="8"/><circle cx="64" cy="164" r="8"/><circle cx="30" cy="192" r="8"/>
  </g></g></g><text x="310" y="196" font-family="Montserrat" font-size="62" font-weight="600" fill="#FFFFFF" text-anchor="middle" letter-spacing="-0.7">Synetic</text><text x="310" y="217" font-family="Montserrat" font-size="12.4" font-weight="500" letter-spacing="7.1" fill="#FFFFFF" text-anchor="middle">VET</text><line x1="209.31" y1="232.21" x2="225.43" y2="232.21" stroke="#FFFFFF" stroke-width="0.99"/><line x1="394.57" y1="232.21" x2="410.69" y2="232.21" stroke="#FFFFFF" stroke-width="0.99"/><text x="310" y="236" font-family="Inter" font-size="10.8" font-weight="400" letter-spacing="1.1" fill="#FFFFFF" text-anchor="middle">Chủ động phòng, bền sức khoẻ</text><text x="310" y="372" font-family="Montserrat" font-size="52" font-weight="700" fill="#2B2B2B" letter-spacing="1" text-anchor="middle" opacity="1">SYNAVAC®</text><text x="310" y="414" font-family="Inter" font-size="24" font-weight="500" fill="#1FA38A" letter-spacing="2" text-anchor="middle" opacity="1">VẮC-XIN PHÒNG BỆNH</text><rect x="180" y="442" width="260" height="46" rx="23" fill="#C9A24B"/><text x="310" y="473" font-family="Montserrat" font-size="22" font-weight="700" fill="#FFFFFF" letter-spacing="2" text-anchor="middle" opacity="1">50 LIỀU / LỌ</text><text x="70" y="550" font-family="Inter" font-size="20" font-weight="600" fill="#2B2B2B" letter-spacing="0" text-anchor="start" opacity="0.85">Quy cách</text><text x="550" y="550" font-family="Inter" font-size="20" font-weight="400" fill="#2B2B2B" letter-spacing="0" text-anchor="end" opacity="0.85">Lọ 50 liều đông khô</text><line x1="70" y1="560" x2="550" y2="560" stroke="#2B2B2B" stroke-opacity="0.12" stroke-width="1"/><text x="70" y="596" font-family="Inter" font-size="20" font-weight="600" fill="#2B2B2B" letter-spacing="0" text-anchor="start" opacity="0.85">Bảo quản</text><text x="550" y="596" font-family="Inter" font-size="20" font-weight="400" fill="#2B2B2B" letter-spacing="0" text-anchor="end" opacity="0.85">2 – 8 °C, tránh ánh sáng</text><line x1="70" y1="606" x2="550" y2="606" stroke="#2B2B2B" stroke-opacity="0.12" stroke-width="1"/><text x="70" y="642" font-family="Inter" font-size="20" font-weight="600" fill="#2B2B2B" letter-spacing="0" text-anchor="start" opacity="0.85">Đường dùng</text><text x="550" y="642" font-family="Inter" font-size="20" font-weight="400" fill="#2B2B2B" letter-spacing="0" text-anchor="end" opacity="0.85">Tiêm dưới da hoặc tiêm bắp</text><line x1="70" y1="652" x2="550" y2="652" stroke="#2B2B2B" stroke-opacity="0.12" stroke-width="1"/><text x="70" y="688" font-family="Inter" font-size="20" font-weight="600" fill="#2B2B2B" letter-spacing="0" text-anchor="start" opacity="0.85">Số đăng ký</text><text x="550" y="688" font-family="Inter" font-size="20" font-weight="400" fill="#2B2B2B" letter-spacing="0" text-anchor="end" opacity="0.85">TYT-…-…</text><line x1="70" y1="698" x2="550" y2="698" stroke="#2B2B2B" stroke-opacity="0.12" stroke-width="1"/><defs><linearGradient id="w3" x1="0" y1="0" x2="1" y2="0.4"><stop offset="0" stop-color="#1FA38A"/><stop offset="1" stop-color="#0F6B50"/></linearGradient></defs><path d="M0 730 C 186.0 648.0 384.4 828.4 620 680.8 L 620 820 L 0 820 Z" fill="url(#w3)" opacity="1.0"/><text x="310" y="790" font-family="Inter" font-size="15" font-weight="400" fill="#FFFFFF" letter-spacing="0" text-anchor="middle" opacity="0.9">CÔNG TY CỔ PHẦN TẬP ĐOÀN SYNETIC  ·  www.synetic.vn</text></svg>