<svg xmlns="http://www.w3.org/2000/svg" xmlns:xlink="http://www.w3.org/1999/xlink" width="1260" height="440" viewBox="0 0 1260 440"><rect width="1260" height="440" fill="#FFFFFF"/><g transform="translate(430,-6) scale(0.62)"><defs><linearGradient id="g15" x1="0.15" y1="0" x2="0.85" y2="1"><stop offset="0" stop-color="#0F6B50"/><stop offset="0.5" stop-color="#1FA38A"/><stop offset="1" stop-color="#1F5FAF"/></linearGradient></defs><g>
  <path d="M138 44 C64 44 58 112 108 126 C158 140 152 200 78 200" fill="none"
        stroke="url(#g15)" stroke-width="31" stroke-linecap="round"/>
  <g transform="translate(146,30) rotate(-26) scale(0.92)"><path d="M0 0 C16 -14 40 -10 50 6 C32 20 10 16 0 0 Z" fill="#0F6B50"/></g>
  <g stroke="#1F5FAF" stroke-width="5" fill="#1F5FAF" stroke-linecap="round">
    <line x1="34" y1="138" x2="64" y2="164"/><line x1="64" y1="164" x2="30" y2="192"/>
    <circle cx="34" cy="138" r="8"/><circle cx="64" cy="164" r="8"/><circle cx="30" cy="192" r="8"/>
  </g></g></g><text x="560" y="116" font-family="Montserrat" font-size="62" font-weight="600" fill="#2B2B2B" text-anchor="start" letter-spacing="-0.7">Synetic</text><text x="563.72" y="137" font-family="Montserrat" font-size="12.4" font-weight="500" letter-spacing="7.1" fill="#2B2B2B" text-anchor="start">GROUP</text><path d="M630 156 V190 M180 190 H1080 M180 190 V222 M405 190 V222 M630 190 V222 M855 190 V222 M1080 190 V222" stroke="#1FA38A" stroke-width="2" fill="none"/><g transform="translate(100,228) scale(0.30)"><g>
  <path d="M138 44 C64 44 58 112 108 126 C158 140 152 200 78 200" fill="none"
        stroke="#0F6B50" stroke-width="31" stroke-linecap="round"/>
  <g transform="translate(146,30) rotate(-26) scale(0.92)"><path d="M0 0 C16 -14 40 -10 50 6 C32 20 10 16 0 0 Z" fill="#0F6B50"/></g>
  <g stroke="#0F6B50" stroke-width="5" fill="#0F6B50" stroke-linecap="round">
    <line x1="34" y1="138" x2="64" y2="164"/><line x1="64" y1="164" x2="30" y2="192"/>
    <circle cx="34" cy="138" r="8"/><circle cx="64" cy="164" r="8"/><circle cx="30" cy="192" r="8"/>
  </g></g></g><text x="168" y="300" font-family="Montserrat" font-size="34" font-weight="600" fill="#2B2B2B" text-anchor="start" letter-spacing="-0.4">Synetic</text><text x="170.04" y="312" font-family="Montserrat" font-size="6.8" font-weight="500" letter-spacing="3.9" fill="#0F6B50" text-anchor="start">NUTRITION</text><g transform="translate(325,228) scale(0.30)"><g>
  <path d="M138 44 C64 44 58 112 108 126 C158 140 152 200 78 200" fill="none"
        stroke="#1FA38A" stroke-width="31" stroke-linecap="round"/>
  <g transform="translate(146,30) rotate(-26) scale(0.92)"><path d="M0 0 C16 -14 40 -10 50 6 C32 20 10 16 0 0 Z" fill="#1FA38A"/></g>
  <g stroke="#1FA38A" stroke-width="5" fill="#1FA38A" stroke-linecap="round">
    <line x1="34" y1="138" x2="64" y2="164"/><line x1="64" y1="164" x2="30" y2="192"/>
    <circle cx="34" cy="138" r="8"/><circle cx="64" cy="164" r="8"/><circle cx="30" cy="192" r="8"/>
  </g></g></g><text x="393" y="300" font-family="Montserrat" font-size="34" font-weight="600" fill="#2B2B2B" text-anchor="start" letter-spacing="-0.4">Synetic</text><text x="395.04" y="312" font-family="Montserrat" font-size="6.8" font-weight="500" letter-spacing="3.9" fill="#1FA38A" text-anchor="start">VET</text><g transform="translate(550,228) scale(0.30)"><g>
  <path d="M138 44 C64 44 58 112 108 126 C158 140 152 200 78 200" fill="none"
        stroke="#1F5FAF" stroke-width="31" stroke-linecap="round"/>
  <g transform="translate(146,30) rotate(-26) scale(0.92)"><path d="M0 0 C16 -14 40 -10 50 6 C32 20 10 16 0 0 Z" fill="#1F5FAF"/></g>
  <g stroke="#1F5FAF" stroke-width="5" fill="#1F5FAF" stroke-linecap="round">
    <line x1="34" y1="138" x2="64" y2="164"/><line x1="64" y1="164" x2="30" y2="192"/>
    <circle cx="34" cy="138" r="8"/><circle cx="64" cy="164" r="8"/><circle cx="30" cy="192" r="8"/>
  </g></g></g><text x="618" y="300" font-family="Montserrat" font-size="34" font-weight="600" fill="#2B2B2B" text-anchor="start" letter-spacing="-0.4">Synetic</text><text x="620.04" y="312" font-family="Montserrat" font-size="6.8" font-weight="500" letter-spacing="3.9" fill="#1F5FAF" text-anchor="start">LOGISTICS</text><g transform="translate(775,228) scale(0.30)"><g>
  <path d="M138 44 C64 44 58 112 108 126 C158 140 152 200 78 200" fill="none"
        stroke="#0F6B50" stroke-width="31" stroke-linecap="round"/>
  <g transform="translate(146,30) rotate(-26) scale(0.92)"><path d="M0 0 C16 -14 40 -10 50 6 C32 20 10 16 0 0 Z" fill="#0F6B50"/></g>
  <g stroke="#0F6B50" stroke-width="5" fill="#0F6B50" stroke-linecap="round">
    <line x1="34" y1="138" x2="64" y2="164"/><line x1="64" y1="164" x2="30" y2="192"/>
    <circle cx="34" cy="138" r="8"/><circle cx="64" cy="164" r="8"/><circle cx="30" cy="192" r="8"/>
  </g></g></g><text x="843" y="300" font-family="Montserrat" font-size="34" font-weight="600" fill="#2B2B2B" text-anchor="start" letter-spacing="-0.4">Synetic</text><text x="845.04" y="312" font-family="Montserrat" font-size="6.8" font-weight="500" letter-spacing="3.9" fill="#0F6B50" text-anchor="start">FARM</text><g transform="translate(1000,228) scale(0.30)"><defs><linearGradient id="g20" x1="0.1" y1="0" x2="0.9" y2="1"><stop offset="0" stop-color="#E0C071"/><stop offset="0.55" stop-color="#C9A24B"/><stop offset="1" stop-color="#A67C2B"/></linearGradient></defs><g>
  <path d="M138 44 C64 44 58 112 108 126 C158 140 152 200 78 200" fill="none"
        stroke="url(#g20)" stroke-width="31" stroke-linecap="round"/>
  <g transform="translate(146,30) rotate(-26) scale(0.92)"><path d="M0 0 C16 -14 40 -10 50 6 C32 20 10 16 0 0 Z" fill="#C9A24B"/></g>
  <g stroke="#C9A24B" stroke-width="5" fill="#C9A24B" stroke-linecap="round">
    <line x1="34" y1="138" x2="64" y2="164"/><line x1="64" y1="164" x2="30" y2="192"/>
    <circle cx="34" cy="138" r="8"/><circle cx="64" cy="164" r="8"/><circle cx="30" cy="192" r="8"/>
  </g></g></g><text x="1068" y="300" font-family="Montserrat" font-size="34" font-weight="600" fill="#2B2B2B" text-anchor="start" letter-spacing="-0.4">Synetic</text><text x="1070.04" y="312" font-family="Montserrat" font-size="6.8" font-weight="500" letter-spacing="3.9" fill="#C9A24B" text-anchor="start">CAPITAL</text></svg>