<svg xmlns="http://www.w3.org/2000/svg" xmlns:xlink="http://www.w3.org/1999/xlink" width="2400" height="620" viewBox="0 0 2400 620"><rect width="2400" height="620" fill="#0F6B50"/><g opacity="0.45"><g opacity="0.12" stroke="#1FA38A" fill="#1FA38A"><line x1="777.20" y1="93.53" x2="753.95" y2="363.05" stroke-width="3.120"/><line x1="777.20" y1="93.53" x2="1087.64" y2="185.86" stroke-width="3.120"/><line x1="777.20" y1="93.53" x2="585.83" y2="356.14" stroke-width="3.120"/><line x1="1562.24" y1="44.91" x2="1286.12" y2="226.73" stroke-width="3.120"/><line x1="1562.24" y1="44.91" x2="1385.05" y2="245.94" stroke-width="3.120"/><line x1="1562.24" y1="44.91" x2="1533.39" y2="230.89" stroke-width="3.120"/><line x1="1562.24" y1="44.91" x2="1314.59" y2="38.93" stroke-width="3.120"/><line x1="1562.24" y1="44.91" x2="1632.96" y2="265.11" stroke-width="3.120"/><line x1="1562.24" y1="44.91" x2="1750.67" y2="178.52" stroke-width="3.120"/><line x1="1286.12" y1="226.73" x2="1018.85" y2="512.65" stroke-width="3.120"/><line x1="1286.12" y1="226.73" x2="1385.05" y2="245.94" stroke-width="3.120"/><line x1="1286.12" y1="226.73" x2="1533.39" y2="230.89" stroke-width="3.120"/><line x1="1286.12" y1="226.73" x2="1314.59" y2="38.93" stroke-width="3.120"/><line x1="1286.12" y1="226.73" x2="1632.96" y2="265.11" stroke-width="3.120"/><line x1="1286.12" y1="226.73" x2="1087.64" y2="185.86" stroke-width="3.120"/><line x1="1286.12" y1="226.73" x2="1260.47" y2="542.59" stroke-width="3.120"/><line x1="139.20" y1="314.61" x2="89.99" y2="268.86" stroke-width="3.120"/><line x1="139.20" y1="314.61" x2="167.65" y2="56.24" stroke-width="3.120"/><line x1="139.20" y1="314.61" x2="297.12" y2="138.41" stroke-width="3.120"/><line x1="139.20" y1="314.61" x2="346.21" y2="73.03" stroke-width="3.120"/><line x1="139.20" y1="314.61" x2="433.74" y2="360.59" stroke-width="3.120"/><line x1="139.20" y1="314.61" x2="143.04" y2="127.69" stroke-width="3.120"/><line x1="89.99" y1="268.86" x2="167.65" y2="56.24" stroke-width="3.120"/><line x1="89.99" y1="268.86" x2="297.12" y2="138.41" stroke-width="3.120"/><line x1="89.99" y1="268.86" x2="346.21" y2="73.03" stroke-width="3.120"/><line x1="89.99" y1="268.86" x2="433.74" y2="360.59" stroke-width="3.120"/><line x1="89.99" y1="268.86" x2="143.04" y2="127.69" stroke-width="3.120"/><line x1="167.65" y1="56.24" x2="297.12" y2="138.41" stroke-width="3.120"/><line x1="167.65" y1="56.24" x2="346.21" y2="73.03" stroke-width="3.120"/><line x1="167.65" y1="56.24" x2="433.74" y2="360.59" stroke-width="3.120"/><line x1="167.65" y1="56.24" x2="143.04" y2="127.69" stroke-width="3.120"/><line x1="1018.85" y1="512.65" x2="740.36" y2="506.00" stroke-width="3.120"/><line x1="1018.85" y1="512.65" x2="753.95" y2="363.05" stroke-width="3.120"/><line x1="1018.85" y1="512.65" x2="1087.64" y2="185.86" stroke-width="3.120"/><line x1="1018.85" y1="512.65" x2="1260.47" y2="542.59" stroke-width="3.120"/><line x1="297.12" y1="138.41" x2="346.21" y2="73.03" stroke-width="3.120"/><line x1="297.12" y1="138.41" x2="433.74" y2="360.59" stroke-width="3.120"/><line x1="297.12" y1="138.41" x2="143.04" y2="127.69" stroke-width="3.120"/><line x1="297.12" y1="138.41" x2="585.83" y2="356.14" stroke-width="3.120"/><line x1="1505.84" y1="587.58" x2="1385.05" y2="245.94" stroke-width="3.120"/><line x1="1505.84" y1="587.58" x2="1533.39" y2="230.89" stroke-width="3.120"/><line x1="1505.84" y1="587.58" x2="1632.96" y2="265.11" stroke-width="3.120"/><line x1="1505.84" y1="587.58" x2="1260.47" y2="542.59" stroke-width="3.120"/><line x1="1385.05" y1="245.94" x2="1533.39" y2="230.89" stroke-width="3.120"/><line x1="1385.05" y1="245.94" x2="1314.59" y2="38.93" stroke-width="3.120"/><line x1="1385.05" y1="245.94" x2="1632.96" y2="265.11" stroke-width="3.120"/><line x1="1385.05" y1="245.94" x2="1087.64" y2="185.86" stroke-width="3.120"/><line x1="1385.05" y1="245.94" x2="1260.47" y2="542.59" stroke-width="3.120"/><line x1="1385.05" y1="245.94" x2="1750.67" y2="178.52" stroke-width="3.120"/><line x1="2343.01" y1="28.88" x2="2060.32" y2="179.56" stroke-width="3.120"/><line x1="2343.01" y1="28.88" x2="2352.42" y2="73.20" stroke-width="3.120"/><line x1="2060.32" y1="179.56" x2="1906.51" y2="433.38" stroke-width="3.120"/><line x1="2060.32" y1="179.56" x2="1750.67" y2="178.52" stroke-width="3.120"/><line x1="2060.32" y1="179.56" x2="2352.42" y2="73.20" stroke-width="3.120"/><line x1="346.21" y1="73.03" x2="433.74" y2="360.59" stroke-width="3.120"/><line x1="346.21" y1="73.03" x2="143.04" y2="127.69" stroke-width="3.120"/><line x1="346.21" y1="73.03" x2="585.83" y2="356.14" stroke-width="3.120"/><line x1="740.36" y1="506.00" x2="433.74" y2="360.59" stroke-width="3.120"/><line x1="740.36" y1="506.00" x2="753.95" y2="363.05" stroke-width="3.120"/><line x1="740.36" y1="506.00" x2="585.83" y2="356.14" stroke-width="3.120"/><line x1="433.74" y1="360.59" x2="143.04" y2="127.69" stroke-width="3.120"/><line x1="433.74" y1="360.59" x2="753.95" y2="363.05" stroke-width="3.120"/><line x1="433.74" y1="360.59" x2="585.83" y2="356.14" stroke-width="3.120"/><line x1="1533.39" y1="230.89" x2="1314.59" y2="38.93" stroke-width="3.120"/><line x1="1533.39" y1="230.89" x2="1632.96" y2="265.11" stroke-width="3.120"/><line x1="1533.39" y1="230.89" x2="1750.67" y2="178.52" stroke-width="3.120"/><line x1="1314.59" y1="38.93" x2="1632.96" y2="265.11" stroke-width="3.120"/><line x1="1314.59" y1="38.93" x2="1087.64" y2="185.86" stroke-width="3.120"/><line x1="1632.96" y1="265.11" x2="1906.51" y2="433.38" stroke-width="3.120"/><line x1="1632.96" y1="265.11" x2="1750.67" y2="178.52" stroke-width="3.120"/><line x1="753.95" y1="363.05" x2="1087.64" y2="185.86" stroke-width="3.120"/><line x1="753.95" y1="363.05" x2="585.83" y2="356.14" stroke-width="3.120"/><line x1="1087.64" y1="185.86" x2="1260.47" y2="542.59" stroke-width="3.120"/><line x1="1906.51" y1="433.38" x2="1750.67" y2="178.52" stroke-width="3.120"/><circle cx="777.20" cy="93.53" r="10.080"/><circle cx="1562.24" cy="44.91" r="10.080"/><circle cx="1286.12" cy="226.73" r="10.080"/><circle cx="139.20" cy="314.61" r="10.080"/><circle cx="89.99" cy="268.86" r="10.080"/><circle cx="167.65" cy="56.24" r="10.080"/><circle cx="1018.85" cy="512.65" r="10.080"/><circle cx="297.12" cy="138.41" r="10.080"/><circle cx="1505.84" cy="587.58" r="10.080"/><circle cx="1385.05" cy="245.94" r="10.080"/><circle cx="2343.01" cy="28.88" r="10.080"/><circle cx="2060.32" cy="179.56" r="10.080"/><circle cx="346.21" cy="73.03" r="10.080"/><circle cx="740.36" cy="506.00" r="10.080"/><circle cx="433.74" cy="360.59" r="10.080"/><circle cx="1533.39" cy="230.89" r="10.080"/><circle cx="1314.59" cy="38.93" r="10.080"/><circle cx="143.04" cy="127.69" r="10.080"/><circle cx="1632.96" cy="265.11" r="10.080"/><circle cx="753.95" cy="363.05" r="10.080"/><circle cx="1087.64" cy="185.86" r="10.080"/><circle cx="1906.51" cy="433.38" r="10.080"/><circle cx="585.83" cy="356.14" r="10.080"/><circle cx="1260.47" cy="542.59" r="10.080"/><circle cx="1750.67" cy="178.52" r="10.080"/><circle cx="2352.42" cy="73.20" r="10.080"/></g></g><path d="M0 620 C600 470 1400 660 2400 440 L2400 620 Z" fill="#0B4F3C"/><g transform="translate(150,100) scale(1.6)"><g>
  <path d="M138 44 C64 44 58 112 108 126 C158 140 152 200 78 200" fill="none"
        stroke="#FFFFFF" stroke-width="31" stroke-linecap="round"/>
  <g transform="translate(146,30) rotate(-26) scale(0.92)"><path d="M0 0 C16 -14 40 -10 50 6 C32 20 10 16 0 0 Z" fill="#FFFFFF"/></g>
  <g stroke="#FFFFFF" stroke-width="5" fill="#FFFFFF" stroke-linecap="round">
    <line x1="34" y1="138" x2="64" y2="164"/><line x1="64" y1="164" x2="30" y2="192"/>
    <circle cx="34" cy="138" r="8"/><circle cx="64" cy="164" r="8"/><circle cx="30" cy="192" r="8"/>
  </g></g></g><text x="500" y="286" font-family="Montserrat" font-size="140" font-weight="600" fill="#FFFFFF" text-anchor="start" letter-spacing="-1.7">Synetic</text><text x="508.4" y="334" font-family="Montserrat" font-size="28.0" font-weight="500" letter-spacing="16.1" fill="#FFFFFF" text-anchor="start">FARM</text><line x1="500" y1="367.76" x2="536.40" y2="367.76" stroke="#C9A24B" stroke-width="2.24"/><text x="549.0" y="376" font-family="Inter" font-size="24.5" font-weight="400" letter-spacing="2.5" fill="#C9A24B" text-anchor="start">Nuôi bằng tâm, lớn bằng chuẩn</text><line x1="500" y1="408" x2="2260" y2="408" stroke="#FFFFFF" stroke-opacity="0.3" stroke-width="3"/><text x="500" y="462" font-family="Montserrat" font-size="36" font-weight="600" fill="#FFFFFF" letter-spacing="3" text-anchor="start" opacity="0.95">TRANG TRẠI CHĂN NUÔI AN TOÀN SINH HỌC</text><text x="500" y="508" font-family="Inter" font-size="24" font-weight="400" fill="#FFFFFF" letter-spacing="2" text-anchor="start" opacity="0.75">KHU VỰC KIỂM SOÁT — KHÁCH THAM QUAN VUI LÒNG LIÊN HỆ VĂN PHÒNG</text></svg>