<svg xmlns="http://www.w3.org/2000/svg" xmlns:xlink="http://www.w3.org/1999/xlink" width="900" height="620" viewBox="0 0 900 620"><rect width="900" height="620" fill="#FFFFFF"/><rect x="0" y="0" width="900" height="470" rx="10" fill="#1F5FAF"/><g transform="translate(340,60) scale(1.0)"><g>
  <path d="M138 44 C64 44 58 112 108 126 C158 140 152 200 78 200" fill="none"
        stroke="#FFFFFF" stroke-width="31" stroke-linecap="round"/>
  <g transform="translate(146,30) rotate(-26) scale(0.92)"><path d="M0 0 C16 -14 40 -10 50 6 C32 20 10 16 0 0 Z" fill="#FFFFFF"/></g>
  <g stroke="#FFFFFF" stroke-width="5" fill="#FFFFFF" stroke-linecap="round">
    <line x1="34" y1="138" x2="64" y2="164"/><line x1="64" y1="164" x2="30" y2="192"/>
    <circle cx="34" cy="138" r="8"/><circle cx="64" cy="164" r="8"/><circle cx="30" cy="192" r="8"/>
  </g></g></g><text x="450" y="330" font-family="Montserrat" font-size="96" font-weight="600" fill="#FFFFFF" text-anchor="middle" letter-spacing="-1.2">Synetic</text><text x="450" y="363" font-family="Montserrat" font-size="19.2" font-weight="500" letter-spacing="11.0" fill="#FFFFFF" text-anchor="middle">LOGISTICS</text><line x1="289.73" y1="386.06" x2="314.69" y2="386.06" stroke="#FFFFFF" stroke-width="1.54"/><line x1="585.31" y1="386.06" x2="610.27" y2="386.06" stroke="#FFFFFF" stroke-width="1.54"/><text x="450" y="391" font-family="Inter" font-size="16.8" font-weight="400" letter-spacing="1.7" fill="#FFFFFF" text-anchor="middle">Kết nối chuẩn, vận hành nhanh</text><text x="450" y="545" font-family="Montserrat" font-size="44" font-weight="700" fill="#2B2B2B" letter-spacing="2" text-anchor="middle" opacity="1">KHU VỰC NHẬP HÀNG</text><text x="450" y="590" font-family="Inter" font-size="26" font-weight="400" fill="#2B2B2B" letter-spacing="3" text-anchor="middle" opacity="0.7">RECEIVING AREA</text></svg>