<svg xmlns="http://www.w3.org/2000/svg" width="210mm" height="297mm" viewBox="0 0 210 297"><rect width="210" height="297" fill="#FFFFFF"/><rect x="0" y="0" width="210" height="3" fill="#0B7A6E"/><g transform="translate(18,11) scale(0.085)"><g transform="translate(100,100) rotate(0) translate(6,6)"><path d="M0 0 C30 -8 52 14 46 46 C14 52 -8 30 0 0 Z" fill="#0B7A6E"/></g><g transform="translate(100,100) rotate(120) translate(6,6)"><path d="M0 0 C30 -8 52 14 46 46 C14 52 -8 30 0 0 Z" fill="#57B94F"/></g><g transform="translate(100,100) rotate(240) translate(6,6)"><path d="M0 0 C30 -8 52 14 46 46 C14 52 -8 30 0 0 Z" fill="#FFC233"/></g></g><text x="38" y="21" font-family="Be Vietnam Pro" font-size="8.4" font-weight="800" fill="#0B7A6E" letter-spacing="0.9" text-anchor="start" opacity="1">SYNETIC</text><text x="38.4" y="26" font-family="Be Vietnam Pro" font-size="2.6" font-weight="700" fill="#FFC233" letter-spacing="1.9" text-anchor="start" opacity="1">VET</text><text x="196" y="17" font-family="Be Vietnam Pro" font-size="2.7" font-weight="700" fill="#08322F" letter-spacing="0" text-anchor="end" opacity="1">CÔNG TY CỔ PHẦN SYNETIC THÚ Y</text><text x="196" y="21.5" font-family="Be Vietnam Pro" font-size="2.3" font-weight="400" fill="#08322F" letter-spacing="0" text-anchor="end" opacity="0.75">Tầng 12, Toà nhà ……………, Quận ……, Hà Nội</text><text x="196" y="25.5" font-family="Be Vietnam Pro" font-size="2.3" font-weight="400" fill="#08322F" letter-spacing="0" text-anchor="end" opacity="0.75">T (024) 3xxx xxxx  ·  info@synetic.com.vn</text><text x="196" y="29.5" font-family="Be Vietnam Pro" font-size="2.3" font-weight="400" fill="#08322F" letter-spacing="0" text-anchor="end" opacity="0.75">MST: 01xxxxxxxx  ·  synetic.com.vn</text><line x1="14" y1="34" x2="196" y2="34" stroke="#0B7A6E" stroke-width="0.5"/><line x1="14" y1="35" x2="74" y2="35" stroke="#FFC233" stroke-width="0.9"/><line x1="14" y1="278" x2="196" y2="278" stroke="#0B7A6E" stroke-opacity="0.15" stroke-width="0.3"/><text x="14" y="283.5" font-family="Be Vietnam Pro" font-size="2.5" font-weight="700" fill="#0B7A6E" letter-spacing="0.65" text-anchor="start" opacity="1">KIẾN TẠO GIÁ TRỊ VƯỢT TRỘI</text><text x="196" y="283.5" font-family="Be Vietnam Pro" font-size="2.4" font-weight="400" fill="#08322F" letter-spacing="0" text-anchor="end" opacity="0.6">Trang 1/1</text><rect x="0" y="292" width="210" height="5" fill="#0B7A6E"/><rect x="0" y="292" width="70" height="5" fill="#FFC233"/></svg>